Coordinates
version=1
nRows=50
nColumns=24
inDegrees=yes

Units are S.I. units (second, meters, Newtons, ...)
If the header above contains a line with 'inDegrees', this indicates whether rotational values are in degrees (yes) or radians (no).

endheader
time	pelvis_tilt	pelvis_list	pelvis_rotation	pelvis_tx	pelvis_ty	pelvis_tz	hip_flexion_r	hip_adduction_r	hip_rotation_r	knee_angle_r	ankle_angle_r	subtalar_angle_r	mtp_angle_r	hip_flexion_l	hip_adduction_l	hip_rotation_l	knee_angle_l	ankle_angle_l	subtalar_angle_l	mtp_angle_l	lumbar_extension	lumbar_bending	lumbar_rotation
2.300000	12.380536	1.971050	-180.116141	0.226932	0.849160	-1.208167	20.031736	-10.546751	-31.818134	-14.487317	1.081046	11.201753	0.000000	20.156155	-15.264391	-27.457721	-14.158127	1.517988	14.740305	0.000000	3.415420	2.036081	-0.433450
2.305000	12.355061	1.989591	-180.105313	0.226835	0.849204	-1.208185	19.975500	-10.525654	-31.877547	-14.454038	1.071453	11.221186	0.000000	20.146605	-15.286835	-27.427157	-14.202970	1.560042	14.691586	0.000000	3.376964	2.047182	-0.442827
2.310000	12.286836	2.026559	-180.116248	0.226654	0.849316	-1.208319	19.840004	-10.450751	-31.900897	-14.343132	1.049934	11.280190	0.000000	20.075441	-15.342627	-27.411679	-14.246556	1.605401	14.696589	0.000000	3.308052	2.076688	-0.456422
2.315000	12.286582	2.018025	-180.095040	0.226564	0.849316	-1.208373	19.801578	-10.449243	-31.924750	-14.285729	1.055964	11.283718	0.000000	20.088873	-15.338033	-27.409928	-14.275932	1.613830	14.703611	0.000000	3.306201	2.049317	-0.468530
2.320000	12.261598	2.050326	-180.063379	0.226446	0.849360	-1.208391	19.731367	-10.413758	-32.017647	-14.231354	1.026302	11.311054	0.000000	20.082768	-15.372587	-27.372243	-14.313559	1.674825	14.759594	0.000000	3.272309	2.078253	-0.517103
2.325000	12.285856	2.075881	-180.102571	0.226366	0.849375	-1.208370	19.748642	-10.376493	-32.048934	-14.211144	1.026736	11.352694	0.000000	20.104777	-15.412422	-27.405931	-14.331272	1.649183	14.737545	0.000000	3.292800	2.115895	-0.460574
2.330000	12.293719	2.072348	-180.126665	0.226317	0.849398	-1.208320	19.755075	-10.372599	-32.060266	-14.202129	1.027358	11.352031	0.000000	20.107697	-15.412813	-27.401958	-14.340778	1.648268	14.737202	0.000000	3.284600	2.127623	-0.454965
2.335000	12.385971	2.071607	-180.122684	0.226352	0.849244	-1.208242	19.840435	-10.381143	-32.131396	-14.180460	0.974346	11.417556	0.000000	20.238877	-15.412709	-27.367832	-14.398228	1.664070	14.678143	0.000000	3.379667	2.129794	-0.427859
2.340000	12.321477	2.123809	-180.136215	0.226212	0.849306	-1.208393	19.725709	-10.293135	-32.160977	-14.104326	0.984020	11.469664	0.000000	20.175248	-15.484592	-27.355638	-14.419325	1.657960	14.619367	0.000000	3.306622	2.171877	-0.423072
2.345000	12.312037	2.111847	-180.127849	0.226150	0.849301	-1.208392	19.692579	-10.301252	-32.195122	-14.068825	0.994611	11.497921	0.000000	20.174155	-15.472816	-27.332956	-14.449487	1.700698	14.611442	0.000000	3.284894	2.154013	-0.437151
2.350000	12.317150	2.112549	-180.135073	0.226127	0.849330	-1.208414	19.695208	-10.295145	-32.200528	-14.063104	0.997687	11.498007	0.000000	20.179485	-15.476869	-27.332221	-14.448199	1.698557	14.609914	0.000000	3.273879	2.145652	-0.436339
2.355000	12.328804	2.127103	-180.143830	0.226077	0.849354	-1.208454	19.694003	-10.268217	-32.232007	-14.036516	1.021742	11.502917	0.000000	20.195695	-15.498865	-27.327574	-14.465390	1.685579	14.593943	0.000000	3.285046	2.151731	-0.395608
2.360000	12.335623	2.128002	-180.148088	0.226071	0.849354	-1.208503	19.699996	-10.262013	-32.234689	-14.034129	1.022254	11.504190	0.000000	20.197147	-15.505656	-27.326608	-14.468374	1.688361	14.593294	0.000000	3.272837	2.144513	-0.397372
2.365000	12.335570	2.123725	-180.138487	0.226042	0.849317	-1.208545	19.687722	-10.262204	-32.240194	-14.018990	1.021580	11.515018	0.000000	20.220170	-15.508789	-27.335750	-14.504985	1.686334	14.578350	0.000000	3.264364	2.133853	-0.398050
2.370000	12.340744	2.121250	-180.137860	0.226054	0.849285	-1.208592	19.692775	-10.260170	-32.243157	-14.016094	1.020706	11.516421	0.000000	20.221726	-15.511008	-27.336733	-14.507911	1.689013	14.578107	0.000000	3.251998	2.128229	-0.398663
2.375000	12.340216	2.119250	-180.146901	0.226053	0.849276	-1.208603	19.704284	-10.262922	-32.261805	-14.035802	1.016378	11.518235	0.000000	20.233114	-15.516811	-27.350494	-14.534897	1.687614	14.570499	0.000000	3.233728	2.126680	-0.386883
2.380000	12.357456	2.126675	-180.176684	0.226072	0.849281	-1.208582	19.746910	-10.258755	-32.274539	-14.073586	1.030740	11.544380	0.000000	20.248147	-15.531025	-27.380601	-14.536022	1.680136	14.542457	0.000000	3.231426	2.142692	-0.329231
2.385000	12.366022	2.123271	-180.181934	0.226129	0.849294	-1.208601	19.781320	-10.269497	-32.284290	-14.117454	1.064259	11.548917	0.000000	20.267611	-15.530137	-27.356486	-14.539777	1.668152	14.529799	0.000000	3.214580	2.133651	-0.304033
2.390000	12.361769	2.120324	-180.176933	0.226151	0.849293	-1.208623	19.787453	-10.276810	-32.268214	-14.140673	1.053751	11.559183	0.000000	20.275782	-15.527083	-27.358246	-14.562897	1.678984	14.521302	0.000000	3.192276	2.120555	-0.312017
2.395000	12.347499	2.104877	-180.162904	0.226194	0.849269	-1.208672	19.780647	-10.296807	-32.236024	-14.158973	1.059803	11.568054	0.000000	20.284298	-15.520238	-27.358904	-14.612812	1.704553	14.517615	0.000000	3.155947	2.097700	-0.336101
2.400000	12.329537	2.070306	-180.148876	0.226246	0.849255	-1.208695	19.787542	-10.346065	-32.203987	-14.212049	1.105756	11.554225	0.000000	20.279672	-15.478293	-27.354778	-14.619085	1.744470	14.494083	0.000000	3.114579	2.049732	-0.337297
2.405000	12.319493	2.073551	-180.157990	0.226304	0.849268	-1.208698	19.815509	-10.356503	-32.192053	-14.279067	1.105032	11.545920	0.000000	20.282656	-15.488510	-27.335120	-14.655040	1.745061	14.497586	0.000000	3.079781	2.063804	-0.319080
2.410000	12.337968	2.089414	-180.176945	0.226402	0.849242	-1.208725	19.888184	-10.351016	-32.182670	-14.368354	1.165930	11.501711	0.000000	20.320437	-15.514951	-27.318615	-14.686097	1.768363	14.468991	0.000000	3.071694	2.082067	-0.267727
2.415000	12.326651	2.095236	-180.183326	0.226490	0.849245	-1.208716	19.925512	-10.362656	-32.152187	-14.457095	1.159631	11.490468	0.000000	20.335681	-15.528948	-27.289825	-14.718325	1.749438	14.461346	0.000000	3.025381	2.098527	-0.255446
2.420000	12.320716	2.010142	-180.324951	0.225899	0.849084	-1.208166	19.962294	-10.491354	-32.023308	-14.569148	1.233734	11.593305	0.000000	20.208099	-15.423675	-27.418264	-14.694421	1.897880	14.344205	0.000000	3.086325	2.131674	-0.124820
2.425000	12.307484	2.009542	-180.310320	0.226022	0.849031	-1.208180	20.000069	-10.518361	-32.001432	-14.671346	1.273752	11.584145	0.000000	20.241670	-15.433329	-27.404054	-14.774874	1.944782	14.321429	0.000000	3.035783	2.126715	-0.123756
2.430000	12.302522	2.008611	-180.294620	0.226170	0.848981	-1.208209	20.058689	-10.545582	-31.959336	-14.795573	1.308629	11.552971	0.000000	20.291429	-15.443298	-27.354230	-14.851476	1.987493	14.297878	0.000000	2.990517	2.113654	-0.110967
2.435000	12.302537	2.005449	-180.296112	0.226349	0.848929	-1.208224	20.134120	-10.570891	-31.885281	-14.925399	1.367691	11.500803	0.000000	20.350294	-15.453376	-27.271478	-14.932257	2.012375	14.232716	0.000000	2.940976	2.101040	-0.095981
2.440000	12.395558	1.956920	-180.284776	0.226656	0.848750	-1.208085	20.329682	-10.655120	-31.730220	-15.075209	1.389709	11.305800	0.000000	20.520457	-15.376836	-27.091800	-15.020879	2.000322	13.889512	0.000000	2.992756	2.063394	-0.079555
2.445000	12.348189	1.952235	-180.283487	0.226811	0.848715	-1.208073	20.360221	-10.693532	-31.665613	-15.229469	1.456819	11.268379	0.000000	20.542294	-15.394052	-27.019871	-15.155038	2.090173	13.861328	0.000000	2.896353	2.062952	-0.036747
2.450000	12.280503	1.984044	-180.285114	0.226949	0.848702	-1.208253	20.359933	-10.672797	-31.596518	-15.364268	1.531585	11.200540	0.000000	20.545133	-15.464445	-26.961371	-15.295727	2.166700	13.825050	0.000000	2.776606	2.082838	-0.012557
2.455000	12.370157	1.914366	-180.244224	0.227300	0.848460	-1.208162	20.561744	-10.783298	-31.402451	-15.535647	1.567921	10.996102	0.000000	20.738379	-15.375848	-26.742220	-15.396441	2.154525	13.621618	0.000000	2.815557	2.013422	-0.025126
2.460000	12.344997	1.910842	-180.231399	0.227536	0.848378	-1.208174	20.648076	-10.824421	-31.304575	-15.742240	1.660890	10.859997	0.000000	20.819393	-15.395082	-26.607663	-15.565312	2.224884	13.510369	0.000000	2.725227	2.014682	-0.015863
2.465000	12.295331	1.961870	-180.248053	0.227763	0.848377	-1.208294	20.690217	-10.761960	-31.106875	-15.880873	1.665108	10.506450	0.000000	20.857066	-15.435182	-26.351544	-15.649350	2.165695	12.996613	0.000000	2.608277	2.068593	0.039365
2.470000	12.409955	2.068175	-180.285116	0.228360	0.848063	-1.208843	20.951326	-10.598398	-30.773470	-16.056360	1.705371	10.033964	0.000000	21.152467	-15.650248	-26.257038	-15.913624	2.226067	12.984343	0.000000	2.633316	2.122352	0.087974
2.475000	12.367364	2.038651	-180.250865	0.228657	0.847941	-1.208933	21.025211	-10.673983	-30.693497	-16.276299	1.793354	9.971036	0.000000	21.241883	-15.666534	-26.166340	-16.154961	2.341205	12.983183	0.000000	2.512157	2.061613	0.059904
2.480000	12.338392	2.005947	-180.206596	0.228953	0.847791	-1.208990	21.110712	-10.754961	-30.571089	-16.495868	1.896899	9.882607	0.000000	21.353717	-15.667704	-26.046798	-16.384652	2.449661	12.967068	0.000000	2.412861	2.006914	0.032040
2.485000	12.397006	1.979180	-180.181884	0.229414	0.847546	-1.209034	21.330739	-10.812311	-30.307886	-16.744235	1.940257	9.541697	0.000000	21.587150	-15.646399	-25.774461	-16.616801	2.448120	12.590289	0.000000	2.399691	1.963030	0.075810
2.490000	12.457828	1.935841	-180.161412	0.229867	0.847293	-1.208928	21.579107	-10.933444	-30.167177	-17.070647	2.037731	9.370694	0.000000	21.807105	-15.595894	-25.464271	-16.838813	2.504654	12.220698	0.000000	2.378656	1.932193	0.053786
2.495000	12.406001	1.929339	-180.163144	0.230172	0.847156	-1.208940	21.691937	-11.006835	-30.111021	-17.383788	2.167030	9.292564	0.000000	21.924426	-15.642630	-25.336033	-17.151302	2.617701	12.150288	0.000000	2.242001	1.935570	0.099633
2.500000	12.363849	1.759251	-180.103512	0.230415	0.847025	-1.208442	21.832080	-11.325626	-30.039761	-17.757330	2.277336	9.348477	0.000000	22.009937	-15.377768	-24.850043	-17.346047	2.681293	11.476472	0.000000	2.129775	1.808308	0.070274
2.505000	12.456126	1.871247	-180.111483	0.231118	0.846596	-1.209028	22.104921	-11.198816	-29.802471	-18.015213	2.359378	9.062814	0.000000	22.404437	-15.614830	-24.626787	-17.821074	2.821649	11.369592	0.000000	2.110364	1.864980	0.084114
2.510000	12.399507	1.913111	-180.104357	0.231567	0.846432	-1.209266	22.214099	-11.177823	-29.485516	-18.315522	2.413504	8.792300	0.000000	22.597835	-15.745636	-24.382056	-18.273712	3.009148	11.319185	0.000000	1.943560	1.879017	0.114745
2.515000	12.332559	1.896628	-180.082324	0.231963	0.846177	-1.209336	22.343645	-11.261109	-29.353397	-18.665054	2.604118	8.666731	0.000000	22.784032	-15.793939	-24.171837	-18.714118	3.197416	11.196559	0.000000	1.767080	1.841571	0.133357
2.520000	12.371786	1.895271	-180.072127	0.232570	0.845842	-1.209381	22.624635	-11.325644	-29.114720	-19.070794	2.693142	8.325055	0.000000	23.118904	-15.819356	-23.711616	-19.161976	3.251764	10.601242	0.000000	1.686093	1.833890	0.159103
2.525000	12.486527	1.862752	-180.086120	0.233131	0.845330	-1.209226	23.006927	-11.476987	-28.949390	-19.557509	2.818636	8.303537	0.000000	23.544048	-15.840138	-23.409187	-19.681755	3.389931	10.303903	0.000000	1.709879	1.838354	0.193673
2.530000	12.435620	1.788486	-180.080948	0.233626	0.844882	-1.209235	23.211098	-11.656509	-28.777855	-20.031370	3.023455	8.245412	0.000000	23.789798	-15.805696	-23.031061	-20.196250	3.563685	9.870395	0.000000	1.544927	1.758069	0.246460
2.535000	12.395092	1.879585	-180.025817	0.234534	0.844534	-1.209668	23.401802	-11.606072	-28.598904	-20.412469	3.111754	7.975482	0.000000	24.154391	-15.968700	-22.597532	-20.764034	3.655208	9.515809	0.000000	1.330835	1.812657	0.207235
2.540000	12.475026	1.800300	-180.023875	0.235180	0.843882	-1.209555	23.785805	-11.797874	-28.370841	-20.931928	3.301668	7.835285	0.000000	24.582954	-15.943966	-22.278372	-21.359843	3.814186	9.171147	0.000000	1.309415	1.748174	0.271068
2.545000	12.426960	1.765313	-180.061906	0.235529	0.843349	-1.209500	24.021302	-11.939029	-28.190324	-21.463725	3.531049	7.808092	0.000000	24.831895	-15.991446	-22.063417	-21.928715	4.038930	8.927151	0.000000	1.173652	1.750138	0.325710
